<?xml version="1.0" standalone="no"?>
<!DOCTYPE svg PUBLIC "-//W3C//DTD SVG 20010904//EN"
 "http://www.w3.org/TR/2001/REC-SVG-20010904/DTD/svg10.dtd">
<svg version="1.0" xmlns="http://www.w3.org/2000/svg"
 width="37.000000pt" height="34.000000pt" viewBox="0 0 37.000000 34.000000"
 preserveAspectRatio="xMidYMid meet">
<metadata>
Created by potrace 1.10, written by Peter Selinger 2001-2011
</metadata>
<g transform="translate(0.000000,34.000000) scale(0.100000,-0.100000)"
fill="#000000" stroke="none">
<path d="M67 278 c-20 -31 -41 -218 -27 -232 22 -22 45 8 48 62 3 45 1 51 -14
45 -14 -5 -15 0 -10 38 8 52 26 90 38 83 4 -3 5 -22 2 -43 -7 -44 32 -180 54
-188 21 -9 52 27 52 61 l-1 31 -17 -27 c-23 -38 -32 -35 -32 10 0 53 -43 176
-63 180 -9 2 -22 -7 -30 -20z"/>
<path d="M192 214 c-31 -21 -28 -40 3 -20 25 16 25 16 25 -13 0 -31 46 -141
60 -141 39 0 75 95 45 120 -25 21 -43 -2 -26 -34 11 -19 11 -28 0 -47 l-14
-24 -3 30 c-3 31 -51 145 -62 145 -3 0 -16 -7 -28 -16z"/>
</g>
</svg>
